<?xml version="1.0" encoding="UTF-8" standalone="no"?><svg xmlns="http://www.w3.org/2000/svg" xmlns:xlink="http://www.w3.org/1999/xlink" fill="#695d46" height="306.9" preserveAspectRatio="xMidYMid meet" version="1" viewBox="0.0 0.0 500.0 306.9" width="500" zoomAndPan="magnify"><g id="change1_1"><path d="M280.2,234.7l16.9-13c3.9,1.7,8.1,3,12.3,4l6,20.5c3.5,0.4,7,0.6,10.6,0.6s7.1-0.2,10.6-0.6l6-20.5c4.3-1,8.4-2.3,12.3-4 l16.9,13c6.2-3.5,11.9-7.7,17.2-12.5l-7.2-20.2c2.8-3.3,5.4-6.7,7.6-10.5l21.4,0.6c2.9-6.4,5.1-13.1,6.6-20.2l-17.7-12.1 c0.2-2.1,0.3-4.3,0.3-6.5s-0.1-4.3-0.3-6.5l17.7-12.1c-1.4-7-3.7-13.8-6.6-20.2l-21.4,0.6c-2.2-3.7-4.8-7.2-7.6-10.5l7.2-20.2 c-5.2-4.8-11-9-17.2-12.5l-16.9,13c-3.9-1.7-8.1-3-12.3-4l-6-20.5c-3.5-0.4-7-0.6-10.6-0.6s-7.1,0.2-10.6,0.6l-6,20.5 c-4.3,1-8.4,2.3-12.3,4l-16.9-13c-6.2,3.5-11.9,7.7-17.2,12.5l7.2,20.2c-2.8,3.3-5.4,6.7-7.6,10.5l-21.4-0.6 c-2.9,6.4-5.1,13.1-6.6,20.2l17.7,12.1c-0.2,2.1-0.3,4.3-0.3,6.5s0.1,4.3,0.3,6.5L234.6,172c1.4,7,3.7,13.8,6.6,20.2l21.4-0.6 c2.2,3.7,4.8,7.2,7.6,10.5l-7.2,20.2C268.2,227,274,231.2,280.2,234.7z M326.1,113.3c22.2,0,40.1,18,40.1,40.1s-18,40.1-40.1,40.1 c-22.2,0-40.1-18-40.1-40.1S303.9,113.3,326.1,113.3z"/><path d="M221.5,164.1c0.5-3.5,0.8-7,0.8-10.6c0-3.6-0.3-7.2-0.8-10.6l-13.3-4.3c-0.9-3.5-2.1-6.8-3.6-10l7.4-11.8 c-3.7-6.1-8.3-11.6-13.7-16.3l-12.9,5.3c-2.9-2-6-3.8-9.2-5.3l-1.9-13.8c-6.6-2.2-13.6-3.5-20.9-3.7l-6.5,12.3 c-3.6,0.3-7.1,0.9-10.5,1.8L126,87.7c-6.7,2.6-12.9,6.2-18.4,10.6l2.9,13.6c-2.5,2.5-4.8,5.2-6.8,8.1l-14-0.5 c-3.4,6.2-5.8,12.9-7.3,20l11,8.6c-0.2,1.8-0.3,3.5-0.3,5.3c0,1.8,0.1,3.6,0.3,5.3l-11,8.6c1.4,7.1,3.9,13.8,7.3,20l14-0.5 c2,2.9,4.3,5.6,6.8,8.1l-2.9,13.6c5.5,4.4,11.7,8,18.4,10.6l10.4-9.4c3.4,0.9,6.9,1.5,10.5,1.8l6.5,12.3c7.3-0.2,14.3-1.4,20.9-3.7 l1.9-13.8c3.2-1.5,6.3-3.3,9.2-5.3l12.9,5.3c5.3-4.7,10-10.2,13.7-16.3l-7.4-11.8c1.5-3.2,2.7-6.5,3.6-10L221.5,164.1z M152.4,183.8c-16.8,0-30.4-13.6-30.4-30.4c0-16.8,13.6-30.4,30.4-30.4s30.4,13.6,30.4,30.4C182.8,170.2,169.2,183.8,152.4,183.8z"/><path d="M64.3,127.5l-9.1-8.3l-16.9,18.4v-66c0-18.3,14.9-33.3,33.3-33.3h152.2V26H71.6C46.4,26,26,46.4,26,71.6v66L9.1,119.2 L0,127.5l32.1,35.1L64.3,127.5z"/><path d="M284.3,55.2l-18.4-16.9h162.6c18.3,0,33.2,14.9,33.2,33.3v81.9H474V71.6c0-25.1-20.4-45.6-45.6-45.6H265.9l18.4-16.9L276,0 l-35.1,32.1L276,64.3L284.3,55.2z"/><path d="M500,205.7l-32.1-35.1l-32.1,35.1l9.1,8.3l16.9-18.4v39.8c0,18.3-14.9,33.3-33.2,33.3H276.3V281h152.2 c25.1,0,45.6-20.4,45.6-45.6v-39.8l16.9,18.4L500,205.7z"/><path d="M215.7,251.7l18.4,16.9H71.6c-18.3,0-33.3-14.9-33.3-33.3v-55.6H26v55.6c0,25.1,20.4,45.6,45.6,45.6h162.6l-18.4,16.9 l8.3,9.1l35.1-32.1L224,242.6L215.7,251.7z"/></g></svg>